<?xml version="1.0" standalone="no"?>
<!DOCTYPE svg PUBLIC "-//W3C//DTD SVG 20010904//EN"
 "http://www.w3.org/TR/2001/REC-SVG-20010904/DTD/svg10.dtd">
<svg version="1.0" xmlns="http://www.w3.org/2000/svg"
 width="655.000000pt" height="655.000000pt" viewBox="0 0 655.000000 655.000000"
 preserveAspectRatio="xMidYMid meet">
<metadata>
Created by potrace 1.14, written by Peter Selinger 2001-2017
</metadata>
<g transform="translate(0.000000,655.000000) scale(0.100000,-0.100000)"
fill="#000000" stroke="none">
<path d="M0 3275 l0 -3275 3275 0 3275 0 0 3275 0 3275 -3275 0 -3275 0 0
-3275z m5524 2998 c-22 -268 -81 -449 -208 -643 -167 -256 -431 -450 -712
-525 -164 -44 -384 -62 -384 -31 0 8 -9 18 -20 21 -11 3 -20 12 -20 20 0 8 -9
17 -20 20 -11 3 -20 12 -20 20 0 7 -10 15 -22 17 -15 2 -23 10 -24 25 -2 34
-12 53 -29 53 -8 0 -15 9 -15 20 0 13 -7 20 -19 20 -13 0 -23 11 -31 35 -6 19
-18 35 -26 35 -8 0 -14 9 -14 20 0 11 -6 19 -12 17 -7 -1 -14 7 -14 18 -1 11
-2 28 -3 38 -1 9 -8 17 -16 17 -8 0 -15 6 -15 14 0 22 -26 66 -35 58 -4 -4 -6
5 -3 20 3 17 0 29 -8 32 -16 6 -19 36 -4 36 14 0 12 27 -2 37 -7 4 -13 15 -13
23 0 9 -19 21 -50 31 -30 10 -54 25 -60 37 -5 11 -18 23 -28 26 -15 4 -18 11
-14 32 3 17 -2 40 -14 61 -11 19 -20 56 -20 86 l-2 52 -7 -40 -7 -40 -2 43
c-1 30 -5 42 -16 42 -22 0 -20 57 3 63 10 3 5 5 -12 6 l-29 1 7 61 c3 34 6 73
6 86 0 17 4 22 13 17 9 -6 9 -4 -1 8 -16 19 -12 21 95 38 131 21 359 27 1100
28 l732 2 -5 -57z m-3509 13 c-427 -120 -753 -430 -893 -851 -46 -139 -60
-252 -68 -547 -3 -148 -10 -268 -15 -268 -4 0 -6 -9 -4 -19 2 -11 -2 -22 -10
-25 -20 -7 -23 46 -20 354 2 295 9 357 62 524 92 292 336 581 608 719 126 64
201 93 320 121 94 23 109 17 20 -8z m1283 -22 c-2 -25 -40 -54 -70 -54 -7 0
-31 -8 -53 -19 -22 -10 -83 -38 -135 -62 -366 -167 -606 -450 -725 -854 -27
-90 -33 -72 -11 32 34 156 102 319 191 454 70 105 241 275 346 343 114 74 321
168 336 153 3 -4 12 1 20 9 9 8 21 13 28 10 11 -4 41 2 72 13 2 1 2 -11 1 -25z
m362 -389 c0 -8 -4 -15 -10 -15 -5 0 -10 7 -10 15 0 8 5 15 10 15 6 0 10 -7
10 -15z m-1391 -2587 c-1 -640 -5 -880 -12 -845 -10 46 -27 64 -27 30 -1 -17
-1 -17 -11 0 -7 12 -23 17 -59 17 -38 0 -50 4 -50 15 0 10 -11 15 -35 15 -28
0 -35 4 -35 20 0 17 -7 20 -40 20 -29 0 -40 4 -40 15 0 8 -9 15 -20 15 -11 0
-20 3 -20 8 0 4 -20 16 -45 27 -24 11 -50 30 -56 43 -7 12 -21 22 -31 22 -10
0 -18 5 -18 10 0 6 -6 10 -12 10 -7 0 -24 12 -37 26 -16 17 -32 24 -47 21 -31
-5 -32 13 -34 363 -1 288 11 777 18 733 3 -19 10 -23 38 -23 27 0 34 4 34 20
0 13 7 20 20 20 13 0 20 7 20 20 0 13 7 20 18 20 10 0 24 9 32 20 8 11 19 20
26 20 6 0 19 9 29 20 11 12 31 20 52 20 23 0 33 5 33 15 0 8 9 15 20 15 11 0
20 5 20 10 0 6 13 10 29 10 16 0 48 10 72 23 31 16 43 19 46 10 6 -16 37 -17
64 -3 13 7 19 21 19 42 0 20 3 29 10 22 5 -5 11 -45 13 -89 3 -74 3 -71 5 28
1 59 4 107 7 107 3 0 4 -402 4 -892z m3261 522 c0 -228 -104 -523 -253 -720
-157 -207 -382 -368 -615 -440 -40 -12 -82 -20 -93 -17 -10 3 -17 1 -14 -3 6
-10 -54 -25 -62 -16 -4 3 -1 6 6 6 9 0 8 4 -3 15 -8 8 -22 15 -30 15 -9 0 -16
5 -16 11 0 13 -26 40 -37 38 -22 -4 -35 2 -30 15 7 17 -13 36 -40 40 -10 2
-19 13 -21 24 -2 12 -8 22 -13 22 -5 0 -9 6 -9 14 0 8 -13 19 -30 25 -24 8
-30 16 -30 40 0 24 -4 31 -20 31 -16 0 -20 7 -21 33 0 17 -3 26 -6 20 -6 -16
-23 -17 -23 -1 0 6 -8 20 -17 31 -10 10 -18 24 -18 30 -2 23 -18 72 -26 77 -5
3 -12 30 -17 60 l-7 55 -75 0 c-74 0 -184 -20 -207 -38 -15 -11 -33 -1 -33 21
0 13 2 13 15 -4 12 -16 14 -17 15 -2 0 9 -9 20 -20 23 -17 5 -20 15 -20 57 0
41 -3 51 -20 55 -16 4 -20 14 -20 44 0 22 -4 39 -10 39 -5 0 -10 7 -10 15 0 9
-8 27 -17 41 -13 21 -14 30 -5 45 16 25 15 30 -3 23 -8 -4 -13 -9 -11 -13 2
-3 -14 -15 -37 -26 -53 -26 -211 -182 -264 -261 -87 -128 -163 -288 -208 -436
-22 -73 -25 -77 -20 -33 40 333 262 682 554 870 127 82 361 182 400 172 9 -3
5 -5 -9 -6 -22 -1 -23 -3 -7 -12 13 -8 22 -7 32 1 17 14 35 5 35 -17 0 -11 6
-14 23 -10 281 73 505 93 1070 95 l297 1 0 -49z m-1387 3 c-7 -2 -19 -2 -25 0
-7 3 -2 5 12 5 14 0 19 -2 13 -5z m-406 -585 c-3 -8 -6 -5 -6 6 -1 11 2 17 5
13 3 -3 4 -12 1 -19z m-2607 -643 c0 -8 7 -15 15 -15 8 0 15 -9 15 -20 0 -17
7 -20 40 -20 33 0 40 -3 40 -20 0 -17 7 -20 40 -20 33 0 40 -3 40 -20 0 -16 7
-20 35 -20 24 0 35 -5 35 -15 0 -11 11 -15 36 -15 27 0 37 -5 41 -20 4 -15 14
-20 40 -20 26 0 36 -5 40 -20 3 -11 12 -20 19 -20 8 0 14 -9 14 -20 0 -22 15
-27 26 -9 18 31 23 -48 25 -445 l2 -428 -69 -37 c-204 -108 -390 -270 -502
-439 -19 -29 -37 -50 -39 -48 -6 6 16 1483 23 1583 5 57 11 84 21 87 8 3 17
-3 23 -17 8 -21 9 -21 9 -1 1 32 31 51 31 19z m3748 -70 c-2 -11 -11 -21 -22
-23 -12 -3 -16 0 -11 8 4 7 1 17 -6 22 -11 7 -11 11 -1 15 6 2 12 12 12 21 1
15 3 14 16 -3 8 -11 13 -29 12 -40z m32 -75 c0 -5 7 -10 16 -10 10 0 14 -6 10
-15 -3 -8 -2 -15 2 -15 16 0 82 -68 82 -84 0 -9 5 -16 10 -16 6 0 10 -9 10
-19 0 -11 7 -26 15 -35 8 -8 15 -21 15 -30 0 -8 4 -17 9 -20 15 -10 34 -140
29 -195 -3 -28 -12 -59 -22 -69 -9 -10 -16 -26 -16 -36 0 -9 -7 -19 -14 -22
-8 -3 -20 -30 -26 -60 -6 -30 -16 -54 -21 -54 -5 0 -9 -5 -9 -11 0 -14 -25
-39 -39 -39 -6 0 -11 -4 -11 -9 0 -6 -11 -22 -24 -36 l-25 -26 -5 43 c-12 91
-16 211 -18 446 -1 197 -3 242 -14 242 -21 0 -17 25 9 54 23 27 37 33 37 16z
m-3283 -92 c-3 -8 -6 -5 -6 6 -1 11 2 17 5 13 3 -3 4 -12 1 -19z m2618 -885
c-29 -340 -160 -622 -390 -841 -88 -85 -207 -170 -310 -224 -182 -95 -543
-164 -574 -110 -8 13 -11 14 -11 2 0 -12 -3 -11 -11 2 -5 10 -16 18 -24 18 -7
0 -17 9 -20 20 -3 11 -15 20 -26 20 -10 0 -19 4 -19 9 0 9 -26 43 -67 88 -13
13 -23 31 -23 39 0 8 -4 13 -9 9 -5 -3 -11 7 -13 22 -2 19 -8 28 -20 27 -17
-2 -22 7 -19 33 1 7 -5 13 -14 13 -9 0 -22 14 -28 30 -6 16 -16 30 -22 30 -12
0 -46 91 -52 142 -3 21 -11 42 -19 49 -8 6 -14 22 -14 34 0 22 -17 33 -77 50
-17 5 -23 14 -24 38 -2 30 -2 31 -6 5 -5 -35 -23 -37 -23 -2 0 17 -6 28 -20
31 -15 4 -20 14 -20 40 0 20 4 32 10 28 6 -3 10 -13 10 -22 0 -9 3 -14 6 -10
4 3 3 22 0 42 -5 26 -12 35 -26 35 -16 0 -20 7 -21 38 l-2 37 -7 -35 -7 -35
-2 38 c0 20 -5 37 -11 37 -6 0 -10 30 -9 73 0 49 3 66 9 52 8 -18 9 -18 9 -2
1 10 -6 20 -15 24 -14 5 -15 16 -10 64 4 41 2 59 -7 62 -28 10 14 29 99 44
113 20 470 29 1247 31 l589 2 -7 -77z m-2271 3 c-1 -11 7 -16 25 -17 14 0 19
-3 11 -6 -8 -2 -28 -11 -45 -18 -16 -7 -66 -28 -110 -45 -418 -165 -686 -452
-816 -875 -35 -112 -37 -74 -5 60 70 284 233 530 472 710 131 99 351 202 409
191 20 -4 25 -3 16 3 -11 7 -10 10 5 14 28 7 39 2 38 -17z"/>
<path d="M4100 5190 c0 -5 7 -10 16 -10 8 0 12 5 9 10 -3 6 -10 10 -16 10 -5
0 -9 -4 -9 -10z"/>
<path d="M3705 3550 c-3 -5 -1 -10 4 -10 6 0 11 5 11 10 0 6 -2 10 -4 10 -3 0
-8 -4 -11 -10z"/>
</g>
</svg>
